<svg width="24" height="24" viewBox="0 0 24 24" fill="none" xmlns="http://www.w3.org/2000/svg">
<path fill-rule="evenodd" clip-rule="evenodd" d="M19.0614 4.93865C18.4763 4.35378 17.528 4.35378 16.9429 4.93865L12.0094 9.87218L7.07585 4.93865C6.488 4.37088 5.55357 4.379 4.97567 4.9569C4.39776 5.5348 4.38964 6.46923 4.95742 7.05709L9.89095 11.9906L4.95742 16.9241C4.56795 17.3003 4.41176 17.8573 4.54886 18.3811C4.68597 18.905 5.09504 19.314 5.61885 19.4511C6.14267 19.5882 6.6997 19.432 7.07585 19.0426L12.0094 14.1091L16.9429 19.0426C17.5308 19.6104 18.4652 19.6022 19.0431 19.0243C19.621 18.4464 19.6291 17.512 19.0614 16.9241L14.1278 11.9906L19.0614 7.05709C19.6462 6.47204 19.6462 5.52369 19.0614 4.93865Z" fill="#22313F"/>
</svg>

